<svg xmlns="http://www.w3.org/2000/svg" xmlns:xlink="http://www.w3.org/1999/xlink" width="64" zoomAndPan="magnify" viewBox="0 0 48 48" height="64" preserveAspectRatio="xMidYMid meet" version="1.0"><defs><clipPath id="240ae210b0"><path d="M 2 3 L 46 3 L 46 47.019531 L 2 47.019531 Z M 2 3 " clip-rule="nonzero"/></clipPath><clipPath id="924f37fa7f"><path d="M 1.519531 1.359375 L 46.335938 1.359375 L 46.335938 46 L 1.519531 46 Z M 1.519531 1.359375 " clip-rule="nonzero"/></clipPath></defs><g clip-path="url(#240ae210b0)"><path fill="#07feda" d="M 35.238281 44.722656 L 18.019531 46.90625 C 11.414062 47.746094 5.382812 43.070312 4.542969 36.464844 L 2.359375 19.246094 C 1.519531 12.644531 6.191406 6.609375 12.800781 5.773438 L 30.019531 3.585938 C 36.621094 2.75 42.65625 7.421875 43.496094 14.03125 L 45.679688 31.25 C 46.519531 37.851562 41.84375 43.886719 35.238281 44.722656 Z M 35.238281 44.722656 " fill-opacity="1" fill-rule="nonzero"/></g><g clip-path="url(#924f37fa7f)"><path fill="#00bf63" d="M 16.484375 45.679688 C 15.355469 45.679688 14.242188 45.527344 13.152344 45.21875 C 11.609375 44.785156 10.179688 44.0625 8.910156 43.078125 C 7.636719 42.09375 6.582031 40.890625 5.777344 39.5 C 4.941406 38.066406 4.414062 36.496094 4.203125 34.835938 L 2.019531 17.617188 C 1.804688 15.957031 1.925781 14.308594 2.378906 12.707031 C 2.8125 11.164062 3.535156 9.738281 4.519531 8.464844 C 5.503906 7.191406 6.707031 6.136719 8.09375 5.332031 C 9.53125 4.496094 11.101562 3.96875 12.757812 3.757812 L 29.976562 1.574219 C 31.636719 1.363281 33.289062 1.484375 34.886719 1.933594 C 36.429688 2.367188 37.859375 3.089844 39.132812 4.074219 C 40.40625 5.058594 41.457031 6.261719 42.261719 7.648438 C 43.097656 9.085938 43.625 10.65625 43.835938 12.3125 L 46.023438 29.53125 C 46.234375 31.191406 46.113281 32.84375 45.660156 34.441406 C 45.226562 35.984375 44.507812 37.414062 43.523438 38.6875 C 42.539062 39.960938 41.332031 41.015625 39.945312 41.820312 C 38.511719 42.652344 36.941406 43.179688 35.28125 43.394531 L 18.0625 45.578125 C 17.535156 45.644531 17.007812 45.679688 16.484375 45.679688 Z M 31.542969 2.164062 C 31.054688 2.164062 30.558594 2.195312 30.0625 2.257812 L 12.84375 4.441406 C 9.742188 4.835938 6.980469 6.414062 5.0625 8.882812 C 3.148438 11.355469 2.308594 14.425781 2.703125 17.527344 L 4.890625 34.746094 C 5.699219 41.152344 11.570312 45.699219 17.976562 44.886719 L 35.195312 42.703125 L 35.242188 43.046875 L 35.195312 42.703125 C 41.601562 41.890625 46.148438 36.019531 45.335938 29.613281 L 43.152344 12.394531 C 42.402344 6.492188 37.347656 2.164062 31.542969 2.164062 Z M 31.542969 2.164062 " fill-opacity="1" fill-rule="nonzero"/></g><path stroke-linecap="round" transform="matrix(1.408163, 0, 0, 1.408163, 7.248979, 7.805895)" fill="none" stroke-linejoin="round" d="M 20.176055 12.512674 C 19.826531 9.508427 19.31334 7.25871 18.838985 5.65811 C 18.450625 4.346006 18.256444 3.691341 17.457531 3.094931 C 16.658618 2.501294 15.843061 2.501294 14.211947 2.501294 L 8.788769 2.501294 C 7.157655 2.501294 6.342098 2.501294 5.543185 3.094931 C 4.744272 3.691341 4.550091 4.346006 4.161731 5.65811 C 3.684602 7.25871 3.174185 9.508427 2.824661 12.512674 C 2.411334 16.049529 2.203284 17.819343 3.396106 19.159187 C 4.591701 20.499031 6.525182 20.499031 10.392143 20.499031 L 11.607157 20.499031 " stroke="#000000" stroke-width="1.5" stroke-opacity="1" stroke-miterlimit="4"/><path stroke-linecap="round" transform="matrix(1.408163, 0, 0, 1.408163, 7.248979, 7.805895)" fill="none" stroke-linejoin="round" d="M 8.500273 6.498633 C 8.500273 8.157488 9.842891 9.500105 11.498971 9.500105 C 13.157825 9.500105 14.500443 8.157488 14.500443 6.498633 " stroke="#000000" stroke-width="1.5" stroke-opacity="1" stroke-miterlimit="4"/><path stroke-linecap="round" transform="matrix(1.408163, 0, 0, 1.408163, 7.248979, 7.805895)" fill="none" stroke-linejoin="round" d="M 14.500443 19.500389 C 14.500443 19.500389 15.499085 19.500389 16.5005 21.500446 C 16.5005 21.500446 18.675319 16.498917 21.499255 15.500276 " stroke="#000000" stroke-width="1.5" stroke-opacity="1" stroke-miterlimit="4"/></svg>