<svg xmlns="http://www.w3.org/2000/svg" xmlns:xlink="http://www.w3.org/1999/xlink" width="512" zoomAndPan="magnify" viewBox="0 0 384 383.999986" height="512" preserveAspectRatio="xMidYMid meet" version="1.0"><defs><clipPath id="81e4379041"><path d="M 29.457031 65 L 339.957031 65 L 339.957031 377 L 29.457031 377 Z M 29.457031 65 " clip-rule="nonzero"/></clipPath><clipPath id="7c4e8351ae"><path d="M 29.457031 65 L 142 65 L 142 377 L 29.457031 377 Z M 29.457031 65 " clip-rule="nonzero"/></clipPath><clipPath id="de5ce51001"><path d="M 174 155 L 288 155 L 288 303 L 174 303 Z M 174 155 " clip-rule="nonzero"/></clipPath><clipPath id="12cc9ff446"><path d="M 298.933594 290.011719 L 183.207031 307.21875 L 162.578125 168.496094 L 278.304688 151.289062 Z M 298.933594 290.011719 " clip-rule="nonzero"/></clipPath><clipPath id="caf871cecb"><path d="M 298.933594 290.011719 L 183.207031 307.21875 L 162.578125 168.496094 L 278.304688 151.289062 Z M 298.933594 290.011719 " clip-rule="nonzero"/></clipPath></defs><g clip-path="url(#81e4379041)"><path fill="#0ea5e9" d="M 315.523438 125.199219 L 339.6875 340.335938 L 141.703125 376.96875 L 85.578125 346.585938 L 29.457031 352.027344 L 73.109375 89.34375 L 98.832031 89.34375 L 126.113281 65.960938 Z M 315.523438 125.199219 " fill-opacity="1" fill-rule="nonzero"/></g><path fill="#dc2626" d="M 272.613281 106.492188 L 260.953125 102.738281 C 260.953125 102.738281 244.332031 19.191406 203.28125 19.96875 C 203.28125 19.96875 179.273438 19.191406 167.582031 73.753906 L 157.320312 71.046875 C 157.320312 71.046875 164.308594 22.308594 191.589844 11.394531 C 191.589844 11.394531 246.890625 -12.769531 272.613281 106.492188 Z M 272.613281 106.492188 " fill-opacity="1" fill-rule="nonzero"/><path fill="#dc2626" d="M 191.328125 28.027344 C 191.328125 28.027344 186.132812 34 184.574219 36.082031 C 184.574219 36.082031 203.535156 68.832031 206.390625 86.503906 L 220.167969 91.164062 C 220.167969 91.164062 210.035156 44.132812 191.328125 28.027344 Z M 191.328125 28.027344 " fill-opacity="1" fill-rule="nonzero"/><path fill="#dc2626" d="M 175.480469 18.152344 C 175.480469 18.152344 170.28125 21.789062 167.425781 28.027344 C 167.425781 28.027344 132.085938 13.214844 125.074219 61.28125 L 110.261719 73.753906 C 110.261719 73.753906 114.679688 25.167969 142.871094 15.292969 C 142.871094 15.292969 159.628906 8.277344 175.480469 18.152344 Z M 175.480469 18.152344 " fill-opacity="1" fill-rule="nonzero"/><g clip-path="url(#7c4e8351ae)"><path fill="#0284c7" d="M 126.113281 65.960938 L 141.703125 376.96875 L 85.578125 346.585938 L 29.457031 352.027344 L 73.109375 89.34375 L 98.832031 89.34375 Z M 126.113281 65.960938 " fill-opacity="1" fill-rule="nonzero"/></g><g clip-path="url(#de5ce51001)"><g clip-path="url(#12cc9ff446)"><g clip-path="url(#caf871cecb)"><path fill="#ffffff" d="M 174.96875 246.691406 C 175.75 248.105469 177.332031 248.886719 178.929688 248.648438 L 225.152344 241.777344 L 206.199219 297.578125 C 205.605469 299.332031 206.332031 301.261719 207.945312 302.179688 C 208.722656 302.628906 209.601562 302.777344 210.4375 302.652344 C 211.328125 302.519531 212.171875 302.074219 212.796875 301.351562 L 237.308594 272.882812 L 286.195312 216.101562 C 287.25 214.875 287.433594 213.121094 286.652344 211.707031 C 285.871094 210.292969 284.296875 209.507812 282.695312 209.746094 L 236.472656 216.617188 L 255.425781 160.816406 C 256.023438 159.0625 255.292969 157.132812 253.683594 156.214844 C 252.902344 155.765625 252.023438 155.621094 251.191406 155.742188 C 250.296875 155.875 249.453125 156.324219 248.828125 157.046875 L 224.316406 185.515625 L 175.433594 242.296875 C 174.375 243.519531 174.191406 245.273438 174.96875 246.691406 Z M 174.96875 246.691406 " fill-opacity="1" fill-rule="nonzero"/></g></g></g></svg>