<svg xmlns="http://www.w3.org/2000/svg" xmlns:xlink="http://www.w3.org/1999/xlink" width="300" zoomAndPan="magnify" viewBox="0 0 224.87999 74.999997" height="100" preserveAspectRatio="xMidYMid meet" version="1.0"><defs><g/><clipPath id="aaa8b9c320"><path d="M 0.496094 10 L 55.488281 10 L 55.488281 65.957031 L 0.496094 65.957031 Z M 0.496094 10 " clip-rule="nonzero"/></clipPath><clipPath id="38360674db"><path d="M 23 0.738281 L 44 0.738281 L 44 19 L 23 19 Z M 23 0.738281 " clip-rule="nonzero"/></clipPath><clipPath id="bf49b77559"><path d="M 0.496094 10 L 21 10 L 21 65.957031 L 0.496094 65.957031 Z M 0.496094 10 " clip-rule="nonzero"/></clipPath><clipPath id="6be5f6425c"><path d="M 24 25 L 47 25 L 47 55 L 24 55 Z M 24 25 " clip-rule="nonzero"/></clipPath><clipPath id="368becf136"><path d="M 48.824219 52.054688 L 25.816406 55.476562 L 21.761719 28.210938 L 44.769531 24.789062 Z M 48.824219 52.054688 " clip-rule="nonzero"/></clipPath><clipPath id="54127ba2c6"><path d="M 48.824219 52.054688 L 25.816406 55.476562 L 21.761719 28.210938 L 44.769531 24.789062 Z M 48.824219 52.054688 " clip-rule="nonzero"/></clipPath><clipPath id="0e2a75a8f8"><rect x="0" width="56" y="0" height="67"/></clipPath><clipPath id="f58b23aea5"><path d="M 64 1 L 222 1 L 222 74.980469 L 64 74.980469 Z M 64 1 " clip-rule="nonzero"/></clipPath><clipPath id="511f1aeb6c"><path d="M 95 0.460938 L 157.640625 0.460938 L 157.640625 73.980469 L 95 73.980469 Z M 95 0.460938 " clip-rule="nonzero"/></clipPath><clipPath id="5ea151f835"><rect x="0" width="63" y="0" height="74"/></clipPath><clipPath id="95711efcb2"><path d="M 0.046875 0.460938 L 97 0.460938 L 97 73.980469 L 0.046875 73.980469 Z M 0.046875 0.460938 " clip-rule="nonzero"/></clipPath><clipPath id="4d3736c4a5"><rect x="0" width="97" y="0" height="74"/></clipPath><clipPath id="f54b2be851"><rect x="0" width="158" y="0" height="74"/></clipPath></defs><g transform="matrix(1, 0, 0, 1, 4, 6)"><g clip-path="url(#0e2a75a8f8)"><g clip-path="url(#aaa8b9c320)"><path fill="#ffb6c1" d="M 51.058594 21.441406 L 55.332031 59.464844 L 20.335938 65.941406 L 10.417969 60.570312 L 0.496094 61.53125 L 8.210938 15.101562 L 12.757812 15.101562 L 17.582031 10.96875 Z M 51.058594 21.441406 " fill-opacity="1" fill-rule="nonzero"/></g><g clip-path="url(#38360674db)"><path fill="#1a1a1a" d="M 43.476562 18.132812 L 41.414062 17.46875 C 41.414062 17.46875 38.476562 2.703125 31.222656 2.839844 C 31.222656 2.839844 26.976562 2.703125 24.910156 12.347656 L 23.097656 11.867188 C 23.097656 11.867188 24.332031 3.253906 29.152344 1.324219 C 29.152344 1.324219 38.929688 -2.945312 43.476562 18.132812 Z M 43.476562 18.132812 " fill-opacity="1" fill-rule="nonzero"/></g><path fill="#1a1a1a" d="M 29.109375 4.265625 C 29.109375 4.265625 28.191406 5.320312 27.914062 5.6875 C 27.914062 5.6875 31.265625 11.476562 31.769531 14.601562 L 34.207031 15.425781 C 34.207031 15.425781 32.414062 7.113281 29.109375 4.265625 Z M 29.109375 4.265625 " fill-opacity="1" fill-rule="nonzero"/><path fill="#1a1a1a" d="M 26.308594 2.519531 C 26.308594 2.519531 25.386719 3.164062 24.882812 4.265625 C 24.882812 4.265625 18.636719 1.648438 17.398438 10.144531 L 14.78125 12.347656 C 14.78125 12.347656 15.5625 3.757812 20.542969 2.015625 C 20.542969 2.015625 23.503906 0.773438 26.308594 2.519531 Z M 26.308594 2.519531 " fill-opacity="1" fill-rule="nonzero"/><g clip-path="url(#bf49b77559)"><path fill="#f5b4c4" d="M 17.582031 10.96875 L 20.335938 65.941406 L 10.417969 60.570312 L 0.496094 61.53125 L 8.210938 15.101562 L 12.757812 15.101562 Z M 17.582031 10.96875 " fill-opacity="1" fill-rule="nonzero"/></g><g clip-path="url(#6be5f6425c)"><g clip-path="url(#368becf136)"><g clip-path="url(#54127ba2c6)"><path fill="#fafafa" d="M 24.140625 43.429688 C 24.292969 43.714844 24.609375 43.867188 24.929688 43.820312 L 34.132812 42.453125 L 30.359375 53.5625 C 30.238281 53.914062 30.382812 54.296875 30.703125 54.480469 C 30.859375 54.570312 31.035156 54.597656 31.199219 54.574219 C 31.378906 54.546875 31.546875 54.460938 31.671875 54.316406 L 36.550781 48.644531 L 46.285156 37.339844 C 46.496094 37.097656 46.53125 36.746094 46.378906 36.464844 C 46.222656 36.183594 45.90625 36.027344 45.589844 36.074219 L 36.386719 37.445312 L 40.160156 26.332031 C 40.277344 25.984375 40.132812 25.597656 39.8125 25.414062 C 39.65625 25.328125 39.480469 25.296875 39.316406 25.320312 C 39.136719 25.347656 38.96875 25.4375 38.847656 25.582031 L 33.964844 31.25 L 24.230469 42.554688 C 24.019531 42.800781 23.984375 43.148438 24.140625 43.429688 Z M 24.140625 43.429688 " fill-opacity="1" fill-rule="nonzero"/></g></g></g></g></g><g clip-path="url(#f58b23aea5)"><g transform="matrix(1, 0, 0, 1, 64, 1)"><g clip-path="url(#f54b2be851)"><g clip-path="url(#511f1aeb6c)"><g transform="matrix(1, 0, 0, 1, 95, -0.000000000000000777)"><g clip-path="url(#5ea151f835)"><g fill="#ff66c4" fill-opacity="1"><g transform="translate(1.042368, 58.653889)"><g><path d="M 2.28125 0 L 2.28125 -7.078125 L 8.40625 -7.078125 L 8.40625 -28.34375 L 2.28125 -28.34375 L 2.28125 -35.421875 L 22.984375 -35.421875 L 22.984375 -28.34375 L 16.859375 -28.34375 L 16.859375 -7.078125 L 22.984375 -7.078125 L 22.984375 0 Z M 2.28125 0 "/></g></g></g><g fill="#ff66c4" fill-opacity="1"><g transform="translate(24.219104, 58.653889)"><g><path d="M 0 0 L 11.484375 -31.328125 C 12.054688 -32.878906 13 -34.050781 14.3125 -34.84375 C 15.632812 -35.632812 17.125 -36.03125 18.78125 -36.03125 C 20.425781 -36.03125 21.90625 -35.648438 23.21875 -34.890625 C 24.539062 -34.128906 25.488281 -32.957031 26.0625 -31.375 L 37.609375 0 L 28.4375 0 L 26.21875 -6.828125 L 11.1875 -6.828125 L 8.859375 0 Z M 13.359375 -13.859375 L 24.046875 -13.859375 L 19.53125 -27.984375 C 19.46875 -28.191406 19.375 -28.335938 19.25 -28.421875 C 19.132812 -28.503906 18.992188 -28.546875 18.828125 -28.546875 C 18.660156 -28.546875 18.515625 -28.492188 18.390625 -28.390625 C 18.273438 -28.285156 18.203125 -28.148438 18.171875 -27.984375 Z M 13.359375 -13.859375 "/></g></g></g><g fill="#38b6ff" fill-opacity="1"><g transform="translate(-0.910047, 57.480758)"><g><path d="M 2.28125 0 L 2.28125 -7.078125 L 8.40625 -7.078125 L 8.40625 -28.34375 L 2.28125 -28.34375 L 2.28125 -35.421875 L 22.984375 -35.421875 L 22.984375 -28.34375 L 16.859375 -28.34375 L 16.859375 -7.078125 L 22.984375 -7.078125 L 22.984375 0 Z M 2.28125 0 "/></g></g></g><g fill="#38b6ff" fill-opacity="1"><g transform="translate(22.266689, 57.480758)"><g><path d="M 0 0 L 11.484375 -31.328125 C 12.054688 -32.878906 13 -34.050781 14.3125 -34.84375 C 15.632812 -35.632812 17.125 -36.03125 18.78125 -36.03125 C 20.425781 -36.03125 21.90625 -35.648438 23.21875 -34.890625 C 24.539062 -34.128906 25.488281 -32.957031 26.0625 -31.375 L 37.609375 0 L 28.4375 0 L 26.21875 -6.828125 L 11.1875 -6.828125 L 8.859375 0 Z M 13.359375 -13.859375 L 24.046875 -13.859375 L 19.53125 -27.984375 C 19.46875 -28.191406 19.375 -28.335938 19.25 -28.421875 C 19.132812 -28.503906 18.992188 -28.546875 18.828125 -28.546875 C 18.660156 -28.546875 18.515625 -28.492188 18.390625 -28.390625 C 18.273438 -28.285156 18.203125 -28.148438 18.171875 -27.984375 Z M 13.359375 -13.859375 "/></g></g></g><g fill="#1a1a1a" fill-opacity="1"><g transform="translate(0.0661604, 58.067323)"><g><path d="M 2.28125 0 L 2.28125 -7.078125 L 8.40625 -7.078125 L 8.40625 -28.34375 L 2.28125 -28.34375 L 2.28125 -35.421875 L 22.984375 -35.421875 L 22.984375 -28.34375 L 16.859375 -28.34375 L 16.859375 -7.078125 L 22.984375 -7.078125 L 22.984375 0 Z M 2.28125 0 "/></g></g></g><g fill="#1a1a1a" fill-opacity="1"><g transform="translate(23.242896, 58.067323)"><g><path d="M 0 0 L 11.484375 -31.328125 C 12.054688 -32.878906 13 -34.050781 14.3125 -34.84375 C 15.632812 -35.632812 17.125 -36.03125 18.78125 -36.03125 C 20.425781 -36.03125 21.90625 -35.648438 23.21875 -34.890625 C 24.539062 -34.128906 25.488281 -32.957031 26.0625 -31.375 L 37.609375 0 L 28.4375 0 L 26.21875 -6.828125 L 11.1875 -6.828125 L 8.859375 0 Z M 13.359375 -13.859375 L 24.046875 -13.859375 L 19.53125 -27.984375 C 19.46875 -28.191406 19.375 -28.335938 19.25 -28.421875 C 19.132812 -28.503906 18.992188 -28.546875 18.828125 -28.546875 C 18.660156 -28.546875 18.515625 -28.492188 18.390625 -28.390625 C 18.273438 -28.285156 18.203125 -28.148438 18.171875 -27.984375 Z M 13.359375 -13.859375 "/></g></g></g></g></g></g><g clip-path="url(#95711efcb2)"><g transform="matrix(1, 0, 0, 1, 0.000000000000007105, -0.000000000000000777)"><g clip-path="url(#4d3736c4a5)"><g fill="#1a1a1a" fill-opacity="1"><g transform="translate(0.453011, 58.414294)"><g><path d="M 9.390625 0 C 7.160156 0 5.378906 -0.679688 4.046875 -2.046875 C 2.722656 -3.410156 2.0625 -5.132812 2.0625 -7.21875 C 2.0625 -8.363281 2.289062 -9.390625 2.75 -10.296875 C 3.207031 -11.203125 3.957031 -12.09375 5 -12.96875 L 20.984375 -26.6875 C 21.328125 -26.957031 21.5625 -27.207031 21.6875 -27.4375 C 21.820312 -27.675781 21.890625 -27.960938 21.890625 -28.296875 C 21.890625 -28.566406 21.804688 -28.835938 21.640625 -29.109375 C 21.472656 -29.378906 21.269531 -29.597656 21.03125 -29.765625 C 20.800781 -29.929688 20.519531 -30.015625 20.1875 -30.015625 L 3.03125 -30.015625 L 3.03125 -35.3125 L 20.9375 -35.3125 C 22.445312 -35.3125 23.738281 -35 24.8125 -34.375 C 25.894531 -33.757812 26.738281 -32.910156 27.34375 -31.828125 C 27.945312 -30.753906 28.25 -29.53125 28.25 -28.15625 C 28.25 -27.007812 28.015625 -25.957031 27.546875 -25 C 27.078125 -24.039062 26.351562 -23.15625 25.375 -22.34375 L 9.328125 -8.625 C 9.097656 -8.457031 8.90625 -8.289062 8.75 -8.125 C 8.601562 -7.957031 8.503906 -7.796875 8.453125 -7.640625 C 8.398438 -7.492188 8.375 -7.285156 8.375 -7.015625 C 8.375 -6.742188 8.445312 -6.472656 8.59375 -6.203125 C 8.75 -5.929688 8.960938 -5.710938 9.234375 -5.546875 C 9.503906 -5.378906 9.804688 -5.296875 10.140625 -5.296875 L 28.359375 -5.296875 L 28.359375 0 Z M 9.390625 0 "/></g></g></g><g fill="#1a1a1a" fill-opacity="1"><g transform="translate(30.972729, 58.414294)"><g><path d="M 13.921875 0.609375 C 11.460938 0.609375 9.34375 0.00390625 7.5625 -1.203125 C 5.78125 -2.421875 4.410156 -4.046875 3.453125 -6.078125 C 2.492188 -8.109375 2.015625 -10.351562 2.015625 -12.8125 C 2.015625 -15.375 2.5625 -17.671875 3.65625 -19.703125 C 4.75 -21.734375 6.3125 -23.347656 8.34375 -24.546875 C 10.382812 -25.742188 12.816406 -26.34375 15.640625 -26.34375 C 18.429688 -26.34375 20.8125 -25.742188 22.78125 -24.546875 C 24.75 -23.347656 26.257812 -21.734375 27.3125 -19.703125 C 28.375 -17.671875 28.90625 -15.410156 28.90625 -12.921875 L 28.90625 0 L 23.109375 0 L 23.109375 -4.796875 L 23 -4.796875 C 22.5 -3.847656 21.84375 -2.960938 21.03125 -2.140625 C 20.226562 -1.316406 19.238281 -0.648438 18.0625 -0.140625 C 16.882812 0.359375 15.503906 0.609375 13.921875 0.609375 Z M 15.484375 -4.34375 C 17.003906 -4.34375 18.328125 -4.71875 19.453125 -5.46875 C 20.578125 -6.226562 21.445312 -7.253906 22.0625 -8.546875 C 22.6875 -9.847656 23 -11.304688 23 -12.921875 C 23 -14.535156 22.695312 -15.972656 22.09375 -17.234375 C 21.488281 -18.492188 20.628906 -19.5 19.515625 -20.25 C 18.410156 -21.007812 17.085938 -21.390625 15.546875 -21.390625 C 13.929688 -21.390625 12.550781 -21.007812 11.40625 -20.25 C 10.257812 -19.5 9.382812 -18.484375 8.78125 -17.203125 C 8.175781 -15.921875 7.875 -14.472656 7.875 -12.859375 C 7.875 -11.285156 8.175781 -9.847656 8.78125 -8.546875 C 9.382812 -7.253906 10.25 -6.226562 11.375 -5.46875 C 12.5 -4.71875 13.867188 -4.34375 15.484375 -4.34375 Z M 15.484375 -4.34375 "/></g></g></g><g fill="#1a1a1a" fill-opacity="1"><g transform="translate(63.358944, 58.414294)"><g><path d="M 16.65625 -26.34375 C 18.738281 -26.34375 20.601562 -26.015625 22.25 -25.359375 C 23.894531 -24.703125 25.296875 -23.75 26.453125 -22.5 C 27.617188 -21.257812 28.507812 -19.789062 29.125 -18.09375 C 29.75 -16.394531 30.0625 -14.519531 30.0625 -12.46875 C 30.0625 -9.875 29.53125 -7.59375 28.46875 -5.625 C 27.414062 -3.65625 25.957031 -2.125 24.09375 -1.03125 C 22.226562 0.0625 20.066406 0.609375 17.609375 0.609375 C 16.398438 0.609375 15.253906 0.421875 14.171875 0.046875 C 13.097656 -0.316406 12.125 -0.832031 11.25 -1.5 C 10.375 -2.175781 9.664062 -2.972656 9.125 -3.890625 L 9.078125 -3.890625 L 9.078125 11.09375 L 3.28125 11.09375 L 3.28125 -12.5625 C 3.28125 -15.414062 3.84375 -17.867188 4.96875 -19.921875 C 6.09375 -21.972656 7.664062 -23.554688 9.6875 -24.671875 C 11.707031 -25.785156 14.03125 -26.34375 16.65625 -26.34375 Z M 16.65625 -21.390625 C 15.207031 -21.390625 13.910156 -21.023438 12.765625 -20.296875 C 11.617188 -19.578125 10.722656 -18.578125 10.078125 -17.296875 C 9.441406 -16.023438 9.125 -14.546875 9.125 -12.859375 C 9.125 -11.210938 9.441406 -9.742188 10.078125 -8.453125 C 10.722656 -7.160156 11.617188 -6.148438 12.765625 -5.421875 C 13.910156 -4.703125 15.222656 -4.34375 16.703125 -4.34375 C 18.179688 -4.34375 19.484375 -4.710938 20.609375 -5.453125 C 21.734375 -6.191406 22.613281 -7.195312 23.25 -8.46875 C 23.894531 -9.75 24.21875 -11.210938 24.21875 -12.859375 C 24.21875 -14.546875 23.894531 -16.023438 23.25 -17.296875 C 22.613281 -18.578125 21.722656 -19.578125 20.578125 -20.296875 C 19.441406 -21.023438 18.132812 -21.390625 16.65625 -21.390625 Z M 16.65625 -21.390625 "/></g></g></g></g></g></g></g></g></g></svg>