<svg xmlns="http://www.w3.org/2000/svg" xmlns:xlink="http://www.w3.org/1999/xlink" width="1200" zoomAndPan="magnify" viewBox="0 0 900 299.999988" height="400" preserveAspectRatio="xMidYMid meet" version="1.0"><defs><g/><clipPath id="2df8580064"><path d="M 6.113281 60 L 231.863281 60 L 231.863281 286.875 L 6.113281 286.875 Z M 6.113281 60 " clip-rule="nonzero"/></clipPath><clipPath id="da88df1f89"><path d="M 6.113281 60 L 88 60 L 88 286.875 L 6.113281 286.875 Z M 6.113281 60 " clip-rule="nonzero"/></clipPath><clipPath id="1220f91a6f"><path d="M 6.113281 57 L 231.863281 57 L 231.863281 284.25 L 6.113281 284.25 Z M 6.113281 57 " clip-rule="nonzero"/></clipPath><clipPath id="114f33444f"><path d="M 6.113281 57 L 88 57 L 88 284.25 L 6.113281 284.25 Z M 6.113281 57 " clip-rule="nonzero"/></clipPath><clipPath id="5b7986f393"><path d="M 111 127 L 194 127 L 194 236 L 111 236 Z M 111 127 " clip-rule="nonzero"/></clipPath><clipPath id="c03f589eee"><path d="M 202.46875 225.785156 L 117.898438 238.363281 L 102.898438 137.472656 L 187.46875 124.894531 Z M 202.46875 225.785156 " clip-rule="nonzero"/></clipPath><clipPath id="ea0dbef8fa"><path d="M 202.46875 225.785156 L 117.898438 238.363281 L 102.898438 137.472656 L 187.46875 124.894531 Z M 202.46875 225.785156 " clip-rule="nonzero"/></clipPath><clipPath id="c8b85f8b67"><path d="M 117 122 L 200 122 L 200 230 L 117 230 Z M 117 122 " clip-rule="nonzero"/></clipPath><clipPath id="3f61a330ea"><path d="M 207.949219 220.636719 L 123.378906 233.210938 L 108.378906 132.320312 L 192.949219 119.746094 Z M 207.949219 220.636719 " clip-rule="nonzero"/></clipPath><clipPath id="b3d688e750"><path d="M 207.949219 220.636719 L 123.378906 233.210938 L 108.378906 132.320312 L 192.949219 119.746094 Z M 207.949219 220.636719 " clip-rule="nonzero"/></clipPath><clipPath id="3425dc2cc3"><path d="M 111 122 L 194 122 L 194 230 L 111 230 Z M 111 122 " clip-rule="nonzero"/></clipPath><clipPath id="aed74434b9"><path d="M 202.46875 220.636719 L 117.898438 233.210938 L 102.898438 132.320312 L 187.46875 119.746094 Z M 202.46875 220.636719 " clip-rule="nonzero"/></clipPath><clipPath id="1713a98e39"><path d="M 202.46875 220.636719 L 117.898438 233.210938 L 102.898438 132.320312 L 187.46875 119.746094 Z M 202.46875 220.636719 " clip-rule="nonzero"/></clipPath></defs><g fill="#ffffff" fill-opacity="1"><g transform="translate(276.109215, 150.031041)"><g><path d="M 26.328125 -73.65625 L 26.328125 -15.671875 L 49.203125 -15.671875 L 49.203125 0 L 5.84375 0 L 5.84375 -73.65625 Z M 26.328125 -73.65625 "/></g></g></g><g fill="#ffffff" fill-opacity="1"><g transform="translate(323.121506, 150.031041)"><g><path d="M 26.75 0.734375 C 21.59375 0.734375 17.203125 -0.625 13.578125 -3.34375 C 9.960938 -6.0625 7.210938 -9.703125 5.328125 -14.265625 C 3.441406 -18.828125 2.5 -23.820312 2.5 -29.25 C 2.5 -34.6875 3.441406 -39.679688 5.328125 -44.234375 C 7.210938 -48.796875 9.960938 -52.453125 13.578125 -55.203125 C 17.203125 -57.960938 21.59375 -59.34375 26.75 -59.34375 C 31.0625 -59.34375 34.800781 -58.125 37.96875 -55.6875 C 41.144531 -53.25 43.359375 -49.832031 44.609375 -45.4375 L 44.609375 -58.609375 L 65.078125 -58.609375 L 65.078125 0 L 54.640625 0 C 51.429688 0 48.957031 -0.867188 47.21875 -2.609375 C 45.476562 -4.347656 44.609375 -6.820312 44.609375 -10.03125 L 44.609375 -13.0625 C 43.359375 -8.675781 41.144531 -5.28125 37.96875 -2.875 C 34.800781 -0.46875 31.0625 0.734375 26.75 0.734375 Z M 33.953125 -17.234375 C 35.972656 -17.234375 37.78125 -17.71875 39.375 -18.6875 C 40.976562 -19.664062 42.25 -21.039062 43.1875 -22.8125 C 44.132812 -24.59375 44.609375 -26.738281 44.609375 -29.25 C 44.609375 -31.757812 44.132812 -33.914062 43.1875 -35.71875 C 42.25 -37.53125 40.976562 -38.941406 39.375 -39.953125 C 37.78125 -40.960938 35.972656 -41.46875 33.953125 -41.46875 C 31.929688 -41.46875 30.117188 -40.960938 28.515625 -39.953125 C 26.921875 -38.941406 25.671875 -37.53125 24.765625 -35.71875 C 23.859375 -33.914062 23.40625 -31.757812 23.40625 -29.25 C 23.40625 -26.738281 23.859375 -24.59375 24.765625 -22.8125 C 25.671875 -21.039062 26.921875 -19.664062 28.515625 -18.6875 C 30.117188 -17.71875 31.929688 -17.234375 33.953125 -17.234375 Z M 33.953125 -17.234375 "/></g></g></g><g fill="#ffffff" fill-opacity="1"><g transform="translate(389.774638, 150.031041)"><g><path d="M 44.1875 0.734375 C 39.9375 0.734375 36.207031 -0.46875 33 -2.875 C 29.800781 -5.28125 27.578125 -8.675781 26.328125 -13.0625 L 26.328125 27.890625 L 5.84375 27.890625 L 5.84375 -58.609375 L 26.328125 -58.609375 L 26.328125 -45.4375 C 27.578125 -49.832031 29.800781 -53.25 33 -55.6875 C 36.207031 -58.125 39.9375 -59.34375 44.1875 -59.34375 C 49.34375 -59.34375 53.726562 -57.960938 57.34375 -55.203125 C 60.96875 -52.453125 63.71875 -48.796875 65.59375 -44.234375 C 67.476562 -39.679688 68.421875 -34.6875 68.421875 -29.25 C 68.421875 -23.820312 67.476562 -18.828125 65.59375 -14.265625 C 63.71875 -9.703125 60.96875 -6.0625 57.34375 -3.34375 C 53.726562 -0.625 49.34375 0.734375 44.1875 0.734375 Z M 36.984375 -17.234375 C 39.003906 -17.234375 40.8125 -17.71875 42.40625 -18.6875 C 44.007812 -19.664062 45.265625 -21.039062 46.171875 -22.8125 C 47.078125 -24.59375 47.53125 -26.738281 47.53125 -29.25 C 47.53125 -31.757812 47.078125 -33.914062 46.171875 -35.71875 C 45.265625 -37.53125 44.007812 -38.941406 42.40625 -39.953125 C 40.8125 -40.960938 39.003906 -41.46875 36.984375 -41.46875 C 34.960938 -41.46875 33.148438 -40.960938 31.546875 -39.953125 C 29.941406 -38.941406 28.671875 -37.53125 27.734375 -35.71875 C 26.796875 -33.914062 26.328125 -31.757812 26.328125 -29.25 C 26.328125 -26.738281 26.796875 -24.59375 27.734375 -22.8125 C 28.671875 -21.039062 29.941406 -19.664062 31.546875 -18.6875 C 33.148438 -17.71875 34.960938 -17.234375 36.984375 -17.234375 Z M 36.984375 -17.234375 "/></g></g></g><g fill="#ffffff" fill-opacity="1"><g transform="translate(456.532243, 150.031041)"><g><path d="M 26.75 0.734375 C 21.59375 0.734375 17.203125 -0.625 13.578125 -3.34375 C 9.960938 -6.0625 7.210938 -9.703125 5.328125 -14.265625 C 3.441406 -18.828125 2.5 -23.820312 2.5 -29.25 C 2.5 -34.6875 3.441406 -39.679688 5.328125 -44.234375 C 7.210938 -48.796875 9.960938 -52.453125 13.578125 -55.203125 C 17.203125 -57.960938 21.59375 -59.34375 26.75 -59.34375 C 31.0625 -59.34375 34.800781 -58.125 37.96875 -55.6875 C 41.144531 -53.25 43.359375 -49.832031 44.609375 -45.4375 L 44.609375 -58.609375 L 65.078125 -58.609375 L 65.078125 0 L 54.640625 0 C 51.429688 0 48.957031 -0.867188 47.21875 -2.609375 C 45.476562 -4.347656 44.609375 -6.820312 44.609375 -10.03125 L 44.609375 -13.0625 C 43.359375 -8.675781 41.144531 -5.28125 37.96875 -2.875 C 34.800781 -0.46875 31.0625 0.734375 26.75 0.734375 Z M 33.953125 -17.234375 C 35.972656 -17.234375 37.78125 -17.71875 39.375 -18.6875 C 40.976562 -19.664062 42.25 -21.039062 43.1875 -22.8125 C 44.132812 -24.59375 44.609375 -26.738281 44.609375 -29.25 C 44.609375 -31.757812 44.132812 -33.914062 43.1875 -35.71875 C 42.25 -37.53125 40.976562 -38.941406 39.375 -39.953125 C 37.78125 -40.960938 35.972656 -41.46875 33.953125 -41.46875 C 31.929688 -41.46875 30.117188 -40.960938 28.515625 -39.953125 C 26.921875 -38.941406 25.671875 -37.53125 24.765625 -35.71875 C 23.859375 -33.914062 23.40625 -31.757812 23.40625 -29.25 C 23.40625 -26.738281 23.859375 -24.59375 24.765625 -22.8125 C 25.671875 -21.039062 26.921875 -19.664062 28.515625 -18.6875 C 30.117188 -17.71875 31.929688 -17.234375 33.953125 -17.234375 Z M 33.953125 -17.234375 "/></g></g></g><g clip-path="url(#2df8580064)"><path fill="#0284c7" d="M 214.558594 103.171875 L 232.167969 259.933594 L 87.898438 286.628906 L 47.007812 264.488281 L 6.113281 268.453125 L 37.917969 77.046875 L 56.660156 77.046875 L 76.539062 60.003906 Z M 214.558594 103.171875 " fill-opacity="1" fill-rule="nonzero"/></g><path fill="#0284c7" d="M 183.289062 89.539062 L 174.796875 86.804688 C 174.796875 86.804688 162.683594 25.925781 132.769531 26.496094 C 132.769531 26.496094 115.277344 25.925781 106.757812 65.683594 L 99.28125 63.714844 C 99.28125 63.714844 104.371094 28.199219 124.25 20.246094 C 124.25 20.246094 164.546875 2.640625 183.289062 89.539062 Z M 183.289062 89.539062 " fill-opacity="1" fill-rule="nonzero"/><path fill="#0284c7" d="M 124.0625 32.363281 C 124.0625 32.363281 120.277344 36.71875 119.140625 38.234375 C 119.140625 38.234375 132.953125 62.101562 135.039062 74.972656 L 145.078125 78.371094 C 145.078125 78.371094 137.691406 44.101562 124.0625 32.363281 Z M 124.0625 32.363281 " fill-opacity="1" fill-rule="nonzero"/><path fill="#0284c7" d="M 112.511719 25.171875 C 112.511719 25.171875 108.726562 27.820312 106.644531 32.363281 C 106.644531 32.363281 80.894531 21.574219 75.785156 56.597656 L 64.992188 65.6875 C 64.992188 65.6875 68.210938 30.28125 88.753906 23.085938 C 88.753906 23.085938 100.964844 17.976562 112.511719 25.171875 Z M 112.511719 25.171875 " fill-opacity="1" fill-rule="nonzero"/><g clip-path="url(#da88df1f89)"><path fill="#dc2626" d="M 76.539062 60.003906 L 87.898438 286.628906 L 47.007812 264.488281 L 6.113281 268.453125 L 37.917969 77.046875 L 56.660156 77.046875 Z M 76.539062 60.003906 " fill-opacity="1" fill-rule="nonzero"/></g><g clip-path="url(#1220f91a6f)"><path fill="#ffffff" d="M 214.558594 100.546875 L 232.167969 257.308594 L 87.898438 284.003906 L 47.007812 261.863281 L 6.113281 265.828125 L 37.917969 74.421875 L 56.660156 74.421875 L 76.539062 57.382812 Z M 214.558594 100.546875 " fill-opacity="1" fill-rule="nonzero"/></g><path fill="#fafafa" d="M 183.289062 86.914062 L 174.796875 84.183594 C 174.796875 84.183594 162.683594 23.300781 132.769531 23.871094 C 132.769531 23.871094 115.277344 23.300781 106.757812 63.0625 L 99.28125 61.089844 C 99.28125 61.089844 104.371094 25.574219 124.25 17.621094 C 124.25 17.621094 164.546875 0.015625 183.289062 86.914062 Z M 183.289062 86.914062 " fill-opacity="1" fill-rule="nonzero"/><path fill="#fafafa" d="M 124.0625 29.738281 C 124.0625 29.738281 120.277344 34.09375 119.140625 35.609375 C 119.140625 35.609375 132.953125 59.476562 135.039062 72.351562 L 145.078125 75.746094 C 145.078125 75.746094 137.691406 41.476562 124.0625 29.738281 Z M 124.0625 29.738281 " fill-opacity="1" fill-rule="nonzero"/><path fill="#fafafa" d="M 112.511719 22.546875 C 112.511719 22.546875 108.726562 25.195312 106.644531 29.738281 C 106.644531 29.738281 80.894531 18.949219 75.785156 53.972656 L 64.992188 63.0625 C 64.992188 63.0625 68.210938 27.65625 88.753906 20.464844 C 88.753906 20.464844 100.964844 15.351562 112.511719 22.546875 Z M 112.511719 22.546875 " fill-opacity="1" fill-rule="nonzero"/><g clip-path="url(#114f33444f)"><path fill="#fafafa" d="M 76.539062 57.382812 L 87.898438 284.003906 L 47.007812 261.863281 L 6.113281 265.828125 L 37.917969 74.421875 L 56.660156 74.421875 Z M 76.539062 57.382812 " fill-opacity="1" fill-rule="nonzero"/></g><g fill="#ffffff" fill-opacity="1"><g transform="translate(276.109215, 243.698154)"><g><path d="M 7.828125 -72.609375 L 20.6875 -72.609375 L 48.265625 -10.859375 L 43.984375 -10.859375 L 71.5625 -72.609375 L 84.3125 -72.609375 L 84.3125 0 L 72.390625 0 L 72.390625 -61.015625 L 77.203125 -60.484375 L 50.25 0 L 42 0 L 14.9375 -60.484375 L 19.75 -61.015625 L 19.75 0 L 7.828125 0 Z M 7.828125 -72.609375 "/></g></g></g><g fill="#ffffff" fill-opacity="1"><g transform="translate(363.970284, 243.698154)"><g><path d="M 30.8125 0.734375 C 25.800781 0.734375 21.257812 -0.5 17.1875 -2.96875 C 13.113281 -5.445312 9.875 -8.894531 7.46875 -13.3125 C 5.0625 -17.738281 3.859375 -22.910156 3.859375 -28.828125 C 3.859375 -34.753906 5.0625 -39.925781 7.46875 -44.34375 C 9.875 -48.769531 13.113281 -52.203125 17.1875 -54.640625 C 21.257812 -57.078125 25.800781 -58.296875 30.8125 -58.296875 C 35.550781 -58.296875 39.695312 -57.128906 43.25 -54.796875 C 46.800781 -52.460938 49.378906 -49.238281 50.984375 -45.125 L 50.984375 -57.5625 L 63 -57.5625 L 63 0 L 57.671875 0 C 55.710938 0 54.109375 -0.625 52.859375 -1.875 C 51.609375 -3.132812 50.984375 -4.738281 50.984375 -6.6875 L 50.984375 -12.53125 C 49.378906 -8.425781 46.800781 -5.1875 43.25 -2.8125 C 39.695312 -0.445312 35.550781 0.734375 30.8125 0.734375 Z M 33.53125 -9.609375 C 36.53125 -9.609375 39.351562 -10.335938 42 -11.796875 C 44.644531 -13.265625 46.800781 -15.441406 48.46875 -18.328125 C 50.144531 -21.222656 50.984375 -24.722656 50.984375 -28.828125 C 50.984375 -33.003906 50.144531 -36.503906 48.46875 -39.328125 C 46.800781 -42.148438 44.644531 -44.289062 42 -45.75 C 39.351562 -47.21875 36.53125 -47.953125 33.53125 -47.953125 C 30.601562 -47.953125 27.800781 -47.21875 25.125 -45.75 C 22.445312 -44.289062 20.269531 -42.148438 18.59375 -39.328125 C 16.925781 -36.503906 16.09375 -33.003906 16.09375 -28.828125 C 16.09375 -24.722656 16.925781 -21.222656 18.59375 -18.328125 C 20.269531 -15.441406 22.445312 -13.265625 25.125 -11.796875 C 27.800781 -10.335938 30.601562 -9.609375 33.53125 -9.609375 Z M 33.53125 -9.609375 "/></g></g></g><g fill="#ffffff" fill-opacity="1"><g transform="translate(430.518943, 243.698154)"><g><path d="M 7.828125 0 L 7.828125 -57.5625 L 19.75 -57.5625 L 19.75 0 Z M 16.296875 -29.046875 L 19.75 -44.921875 C 21.132812 -49.023438 23.410156 -52.28125 26.578125 -54.6875 C 29.753906 -57.09375 33.363281 -58.296875 37.40625 -58.296875 L 37.40625 -45.96875 C 36.84375 -46.101562 36.300781 -46.1875 35.78125 -46.21875 C 35.257812 -46.257812 34.71875 -46.28125 34.15625 -46.28125 C 31.300781 -46.28125 28.796875 -45.632812 26.640625 -44.34375 C 24.484375 -43.0625 22.796875 -41.144531 21.578125 -38.59375 C 20.359375 -36.050781 19.75 -32.867188 19.75 -29.046875 Z M 16.296875 -29.046875 "/></g></g></g><g fill="#ffffff" fill-opacity="1"><g transform="translate(466.770561, 243.698154)"><g><path d="M 7.828125 0 L 7.828125 -77.3125 L 19.75 -77.3125 L 19.75 -33.4375 C 23.4375 -34.0625 26.96875 -35.363281 30.34375 -37.34375 C 33.726562 -39.332031 36.691406 -42.015625 39.234375 -45.390625 C 41.773438 -48.765625 43.566406 -52.820312 44.609375 -57.5625 L 57.140625 -57.5625 C 56.097656 -52.96875 54.359375 -48.769531 51.921875 -44.96875 C 49.484375 -41.175781 46.644531 -37.90625 43.40625 -35.15625 C 40.164062 -32.40625 36.769531 -30.332031 33.21875 -28.9375 C 35.863281 -28.164062 38.546875 -26.859375 41.265625 -25.015625 C 43.984375 -23.171875 46.539062 -20.957031 48.9375 -18.375 C 51.34375 -15.800781 53.398438 -12.945312 55.109375 -9.8125 C 56.816406 -6.6875 57.910156 -3.414062 58.390625 0 L 45.859375 0 C 45.160156 -3.34375 43.921875 -6.390625 42.140625 -9.140625 C 40.367188 -11.890625 38.28125 -14.289062 35.875 -16.34375 C 33.476562 -18.40625 30.882812 -20.078125 28.09375 -21.359375 C 25.3125 -22.648438 22.53125 -23.4375 19.75 -23.71875 L 19.75 0 Z M 7.828125 0 "/></g></g></g><g fill="#ffffff" fill-opacity="1"><g transform="translate(520.573535, 243.698154)"><g><path d="M 34.578125 0.734375 C 29.910156 0.734375 25.675781 0.00390625 21.875 -1.453125 C 18.082031 -2.921875 14.847656 -4.976562 12.171875 -7.625 C 9.492188 -10.269531 7.4375 -13.347656 6 -16.859375 C 4.570312 -20.378906 3.859375 -24.234375 3.859375 -28.421875 C 3.859375 -32.941406 4.675781 -37.03125 6.3125 -40.6875 C 7.957031 -44.34375 10.1875 -47.492188 13 -50.140625 C 15.820312 -52.785156 19.078125 -54.804688 22.765625 -56.203125 C 26.460938 -57.597656 30.332031 -58.296875 34.375 -58.296875 C 37.988281 -58.296875 41.289062 -57.804688 44.28125 -56.828125 C 47.28125 -55.859375 49.878906 -54.5 52.078125 -52.75 C 54.273438 -51.007812 55.960938 -48.988281 57.140625 -46.6875 C 58.328125 -44.394531 58.921875 -41.925781 58.921875 -39.28125 C 58.921875 -35.59375 57.835938 -32.53125 55.671875 -30.09375 C 53.515625 -27.65625 50.695312 -25.738281 47.21875 -24.34375 C 43.738281 -22.945312 39.90625 -22.003906 35.71875 -21.515625 C 31.539062 -21.035156 27.398438 -20.898438 23.296875 -21.109375 C 22.597656 -21.171875 21.726562 -21.21875 20.6875 -21.25 C 19.644531 -21.289062 18.722656 -21.328125 17.921875 -21.359375 C 17.117188 -21.398438 16.679688 -21.421875 16.609375 -21.421875 C 17.097656 -19.117188 18.191406 -17.046875 19.890625 -15.203125 C 21.597656 -13.359375 23.738281 -11.910156 26.3125 -10.859375 C 28.894531 -9.816406 31.648438 -9.296875 34.578125 -9.296875 C 36.941406 -9.296875 39.289062 -9.710938 41.625 -10.546875 C 43.957031 -11.390625 46.097656 -12.539062 48.046875 -14 C 50.003906 -15.457031 51.644531 -17.128906 52.96875 -19.015625 L 61.84375 -12.640625 C 59.539062 -9.578125 56.945312 -7.050781 54.0625 -5.0625 C 51.175781 -3.082031 48.09375 -1.617188 44.8125 -0.671875 C 41.539062 0.261719 38.128906 0.734375 34.578125 0.734375 Z M 24.34375 -30.609375 C 26.914062 -30.609375 29.523438 -30.726562 32.171875 -30.96875 C 34.816406 -31.21875 37.269531 -31.671875 39.53125 -32.328125 C 41.800781 -32.992188 43.628906 -33.914062 45.015625 -35.09375 C 46.410156 -36.28125 47.109375 -37.816406 47.109375 -39.703125 C 47.109375 -41.296875 46.601562 -42.738281 45.59375 -44.03125 C 44.582031 -45.320312 43.171875 -46.347656 41.359375 -47.109375 C 39.554688 -47.878906 37.4375 -48.265625 35 -48.265625 C 31.375 -48.265625 28.132812 -47.460938 25.28125 -45.859375 C 22.425781 -44.253906 20.179688 -42.128906 18.546875 -39.484375 C 16.910156 -36.835938 16.019531 -33.984375 15.875 -30.921875 C 16.851562 -30.847656 18.070312 -30.773438 19.53125 -30.703125 C 21 -30.640625 22.601562 -30.609375 24.34375 -30.609375 Z M 24.34375 -30.609375 "/></g></g></g><g fill="#ffffff" fill-opacity="1"><g transform="translate(580.958327, 243.698154)"><g><path d="M 27.15625 0.734375 C 22.769531 0.734375 19.113281 -0.757812 16.1875 -3.75 C 13.269531 -6.75 11.8125 -10.828125 11.8125 -15.984375 L 11.8125 -47.84375 L 2.921875 -47.84375 L 2.921875 -57.5625 L 37.8125 -57.5625 L 37.8125 -47.84375 L 23.8125 -47.84375 L 23.8125 -15.25 C 23.8125 -13.300781 24.316406 -11.90625 25.328125 -11.0625 C 26.335938 -10.226562 27.4375 -9.8125 28.625 -9.8125 C 29.664062 -9.8125 30.601562 -9.984375 31.4375 -10.328125 C 32.28125 -10.679688 33.082031 -11.242188 33.84375 -12.015625 L 40.015625 -4.59375 C 38.066406 -2.71875 36.082031 -1.359375 34.0625 -0.515625 C 32.039062 0.316406 29.738281 0.734375 27.15625 0.734375 Z M 7.203125 -53.0625 L 7.203125 -57.5625 C 8.671875 -57.5625 9.804688 -57.976562 10.609375 -58.8125 C 11.410156 -59.644531 11.8125 -60.796875 11.8125 -62.265625 L 11.8125 -71.875 L 23.8125 -71.875 L 23.8125 -64.25 C 23.8125 -63.269531 23.566406 -62.3125 23.078125 -61.375 C 22.597656 -60.4375 21.921875 -59.632812 21.046875 -58.96875 C 20.179688 -58.3125 19.222656 -57.84375 18.171875 -57.5625 Z M 7.203125 -53.0625 "/></g></g></g><g fill="#ffffff" fill-opacity="1"><g transform="translate(619.82175, 243.698154)"><g><path d="M 40.015625 0.734375 C 35.347656 0.734375 31.21875 -0.445312 27.625 -2.8125 C 24.039062 -5.1875 21.445312 -8.425781 19.84375 -12.53125 L 19.84375 27.375 L 7.828125 27.375 L 7.828125 -57.5625 L 19.84375 -57.5625 L 19.84375 -45.125 C 21.445312 -49.238281 24.039062 -52.460938 27.625 -54.796875 C 31.21875 -57.128906 35.347656 -58.296875 40.015625 -58.296875 C 45.023438 -58.296875 49.566406 -57.078125 53.640625 -54.640625 C 57.710938 -52.203125 60.953125 -48.769531 63.359375 -44.34375 C 65.765625 -39.925781 66.96875 -34.753906 66.96875 -28.828125 C 66.96875 -22.910156 65.765625 -17.738281 63.359375 -13.3125 C 60.953125 -8.894531 57.710938 -5.445312 53.640625 -2.96875 C 49.566406 -0.5 45.023438 0.734375 40.015625 0.734375 Z M 37.296875 -9.609375 C 40.285156 -9.609375 43.101562 -10.335938 45.75 -11.796875 C 48.40625 -13.265625 50.566406 -15.441406 52.234375 -18.328125 C 53.898438 -21.222656 54.734375 -24.722656 54.734375 -28.828125 C 54.734375 -33.003906 53.898438 -36.503906 52.234375 -39.328125 C 50.566406 -42.148438 48.40625 -44.289062 45.75 -45.75 C 43.101562 -47.21875 40.285156 -47.953125 37.296875 -47.953125 C 34.367188 -47.953125 31.5625 -47.21875 28.875 -45.75 C 26.195312 -44.289062 24.019531 -42.148438 22.34375 -39.328125 C 20.675781 -36.503906 19.84375 -33.003906 19.84375 -28.828125 C 19.84375 -24.722656 20.675781 -21.222656 22.34375 -18.328125 C 24.019531 -15.441406 26.195312 -13.265625 28.875 -11.796875 C 31.5625 -10.335938 34.367188 -9.609375 37.296875 -9.609375 Z M 37.296875 -9.609375 "/></g></g></g><g fill="#ffffff" fill-opacity="1"><g transform="translate(686.474905, 243.698154)"><g><path d="M 7.828125 -13.15625 L 7.828125 -77.3125 L 19.75 -77.3125 L 19.75 -14.203125 C 19.75 -12.671875 20.195312 -11.488281 21.09375 -10.65625 C 22 -9.820312 23.082031 -9.40625 24.34375 -9.40625 C 25.175781 -9.40625 25.90625 -9.539062 26.53125 -9.8125 L 29.046875 -1.046875 C 27.023438 0.136719 24.617188 0.734375 21.828125 0.734375 C 19.597656 0.734375 17.40625 0.261719 15.25 -0.671875 C 13.09375 -1.617188 11.316406 -3.117188 9.921875 -5.171875 C 8.523438 -7.222656 7.828125 -9.882812 7.828125 -13.15625 Z M 7.828125 -13.15625 "/></g></g></g><g fill="#ffffff" fill-opacity="1"><g transform="translate(713.323978, 243.698154)"><g><path d="M 30.8125 0.734375 C 25.800781 0.734375 21.257812 -0.5 17.1875 -2.96875 C 13.113281 -5.445312 9.875 -8.894531 7.46875 -13.3125 C 5.0625 -17.738281 3.859375 -22.910156 3.859375 -28.828125 C 3.859375 -34.753906 5.0625 -39.925781 7.46875 -44.34375 C 9.875 -48.769531 13.113281 -52.203125 17.1875 -54.640625 C 21.257812 -57.078125 25.800781 -58.296875 30.8125 -58.296875 C 35.550781 -58.296875 39.695312 -57.128906 43.25 -54.796875 C 46.800781 -52.460938 49.378906 -49.238281 50.984375 -45.125 L 50.984375 -57.5625 L 63 -57.5625 L 63 0 L 57.671875 0 C 55.710938 0 54.109375 -0.625 52.859375 -1.875 C 51.609375 -3.132812 50.984375 -4.738281 50.984375 -6.6875 L 50.984375 -12.53125 C 49.378906 -8.425781 46.800781 -5.1875 43.25 -2.8125 C 39.695312 -0.445312 35.550781 0.734375 30.8125 0.734375 Z M 33.53125 -9.609375 C 36.53125 -9.609375 39.351562 -10.335938 42 -11.796875 C 44.644531 -13.265625 46.800781 -15.441406 48.46875 -18.328125 C 50.144531 -21.222656 50.984375 -24.722656 50.984375 -28.828125 C 50.984375 -33.003906 50.144531 -36.503906 48.46875 -39.328125 C 46.800781 -42.148438 44.644531 -44.289062 42 -45.75 C 39.351562 -47.21875 36.53125 -47.953125 33.53125 -47.953125 C 30.601562 -47.953125 27.800781 -47.21875 25.125 -45.75 C 22.445312 -44.289062 20.269531 -42.148438 18.59375 -39.328125 C 16.925781 -36.503906 16.09375 -33.003906 16.09375 -28.828125 C 16.09375 -24.722656 16.925781 -21.222656 18.59375 -18.328125 C 20.269531 -15.441406 22.445312 -13.265625 25.125 -11.796875 C 27.800781 -10.335938 30.601562 -9.609375 33.53125 -9.609375 Z M 33.53125 -9.609375 "/></g></g></g><g fill="#ffffff" fill-opacity="1"><g transform="translate(779.872602, 243.698154)"><g><path d="M 32.078125 0.734375 C 26.566406 0.734375 21.6875 -0.484375 17.4375 -2.921875 C 13.195312 -5.359375 9.875 -8.804688 7.46875 -13.265625 C 5.0625 -17.722656 3.859375 -22.910156 3.859375 -28.828125 C 3.859375 -34.816406 5.0625 -40.003906 7.46875 -44.390625 C 9.875 -48.785156 13.195312 -52.203125 17.4375 -54.640625 C 21.6875 -57.078125 26.566406 -58.296875 32.078125 -58.296875 C 35.421875 -58.296875 38.46875 -57.945312 41.21875 -57.25 C 43.96875 -56.550781 46.40625 -55.488281 48.53125 -54.0625 C 50.65625 -52.632812 52.5 -50.820312 54.0625 -48.625 C 55.625 -46.4375 56.929688 -43.84375 57.984375 -40.84375 L 46.59375 -37.1875 C 45.269531 -40.882812 43.390625 -43.65625 40.953125 -45.5 C 38.515625 -47.34375 35.554688 -48.265625 32.078125 -48.265625 C 28.867188 -48.265625 26.0625 -47.515625 23.65625 -46.015625 C 21.257812 -44.515625 19.398438 -42.316406 18.078125 -39.421875 C 16.753906 -36.535156 16.09375 -33.003906 16.09375 -28.828125 C 16.09375 -24.722656 16.753906 -21.207031 18.078125 -18.28125 C 19.398438 -15.351562 21.257812 -13.125 23.65625 -11.59375 C 26.0625 -10.0625 28.867188 -9.296875 32.078125 -9.296875 C 36.109375 -9.296875 39.410156 -10.390625 41.984375 -12.578125 C 44.566406 -14.773438 46.414062 -17.753906 47.53125 -21.515625 L 58.609375 -18.90625 C 57.566406 -15.28125 55.910156 -11.96875 53.640625 -8.96875 C 51.378906 -5.976562 48.488281 -3.613281 44.96875 -1.875 C 41.457031 -0.132812 37.160156 0.734375 32.078125 0.734375 Z M 32.078125 0.734375 "/></g></g></g><g fill="#ffffff" fill-opacity="1"><g transform="translate(838.272438, 243.698154)"><g><path d="M 34.578125 0.734375 C 29.910156 0.734375 25.675781 0.00390625 21.875 -1.453125 C 18.082031 -2.921875 14.847656 -4.976562 12.171875 -7.625 C 9.492188 -10.269531 7.4375 -13.347656 6 -16.859375 C 4.570312 -20.378906 3.859375 -24.234375 3.859375 -28.421875 C 3.859375 -32.941406 4.675781 -37.03125 6.3125 -40.6875 C 7.957031 -44.34375 10.1875 -47.492188 13 -50.140625 C 15.820312 -52.785156 19.078125 -54.804688 22.765625 -56.203125 C 26.460938 -57.597656 30.332031 -58.296875 34.375 -58.296875 C 37.988281 -58.296875 41.289062 -57.804688 44.28125 -56.828125 C 47.28125 -55.859375 49.878906 -54.5 52.078125 -52.75 C 54.273438 -51.007812 55.960938 -48.988281 57.140625 -46.6875 C 58.328125 -44.394531 58.921875 -41.925781 58.921875 -39.28125 C 58.921875 -35.59375 57.835938 -32.53125 55.671875 -30.09375 C 53.515625 -27.65625 50.695312 -25.738281 47.21875 -24.34375 C 43.738281 -22.945312 39.90625 -22.003906 35.71875 -21.515625 C 31.539062 -21.035156 27.398438 -20.898438 23.296875 -21.109375 C 22.597656 -21.171875 21.726562 -21.21875 20.6875 -21.25 C 19.644531 -21.289062 18.722656 -21.328125 17.921875 -21.359375 C 17.117188 -21.398438 16.679688 -21.421875 16.609375 -21.421875 C 17.097656 -19.117188 18.191406 -17.046875 19.890625 -15.203125 C 21.597656 -13.359375 23.738281 -11.910156 26.3125 -10.859375 C 28.894531 -9.816406 31.648438 -9.296875 34.578125 -9.296875 C 36.941406 -9.296875 39.289062 -9.710938 41.625 -10.546875 C 43.957031 -11.390625 46.097656 -12.539062 48.046875 -14 C 50.003906 -15.457031 51.644531 -17.128906 52.96875 -19.015625 L 61.84375 -12.640625 C 59.539062 -9.578125 56.945312 -7.050781 54.0625 -5.0625 C 51.175781 -3.082031 48.09375 -1.617188 44.8125 -0.671875 C 41.539062 0.261719 38.128906 0.734375 34.578125 0.734375 Z M 24.34375 -30.609375 C 26.914062 -30.609375 29.523438 -30.726562 32.171875 -30.96875 C 34.816406 -31.21875 37.269531 -31.671875 39.53125 -32.328125 C 41.800781 -32.992188 43.628906 -33.914062 45.015625 -35.09375 C 46.410156 -36.28125 47.109375 -37.816406 47.109375 -39.703125 C 47.109375 -41.296875 46.601562 -42.738281 45.59375 -44.03125 C 44.582031 -45.320312 43.171875 -46.347656 41.359375 -47.109375 C 39.554688 -47.878906 37.4375 -48.265625 35 -48.265625 C 31.375 -48.265625 28.132812 -47.460938 25.28125 -45.859375 C 22.425781 -44.253906 20.179688 -42.128906 18.546875 -39.484375 C 16.910156 -36.835938 16.019531 -33.984375 15.875 -30.921875 C 16.851562 -30.847656 18.070312 -30.773438 19.53125 -30.703125 C 21 -30.640625 22.601562 -30.609375 24.34375 -30.609375 Z M 24.34375 -30.609375 "/></g></g></g><g clip-path="url(#5b7986f393)"><g clip-path="url(#c03f589eee)"><g clip-path="url(#ea0dbef8fa)"><path fill="#dc2626" d="M 112.140625 194.222656 C 112.710938 195.253906 113.863281 195.824219 115.027344 195.648438 L 148.707031 190.640625 L 134.898438 231.300781 C 134.464844 232.582031 134.996094 233.988281 136.167969 234.65625 C 136.738281 234.984375 137.375 235.089844 137.984375 235 C 138.636719 234.902344 139.25 234.578125 139.707031 234.050781 L 157.566406 213.304688 L 193.1875 171.933594 C 193.957031 171.039062 194.089844 169.761719 193.523438 168.730469 C 192.953125 167.703125 191.804688 167.128906 190.636719 167.300781 L 156.957031 172.308594 L 170.769531 131.648438 C 171.203125 130.371094 170.671875 128.964844 169.496094 128.296875 C 168.929688 127.96875 168.289062 127.863281 167.679688 127.953125 C 167.03125 128.050781 166.414062 128.375 165.960938 128.902344 L 148.101562 149.644531 L 112.476562 191.019531 C 111.707031 191.914062 111.574219 193.191406 112.140625 194.222656 Z M 112.140625 194.222656 " fill-opacity="1" fill-rule="nonzero"/></g></g></g><g clip-path="url(#c8b85f8b67)"><g clip-path="url(#3f61a330ea)"><g clip-path="url(#b3d688e750)"><path fill="#0284c7" d="M 117.621094 189.074219 C 118.191406 190.105469 119.34375 190.675781 120.507812 190.5 L 154.1875 185.492188 L 140.378906 226.152344 C 139.945312 227.433594 140.476562 228.839844 141.648438 229.507812 C 142.21875 229.832031 142.859375 229.941406 143.464844 229.851562 C 144.117188 229.753906 144.730469 229.429688 145.1875 228.902344 L 163.046875 208.15625 L 198.667969 166.78125 C 199.4375 165.890625 199.570312 164.613281 199.003906 163.582031 C 198.433594 162.554688 197.285156 161.980469 196.117188 162.152344 L 162.4375 167.160156 L 176.25 126.5 C 176.683594 125.222656 176.152344 123.816406 174.976562 123.144531 C 174.410156 122.820312 173.769531 122.714844 173.164062 122.804688 C 172.511719 122.898438 171.894531 123.226562 171.441406 123.753906 L 153.582031 144.496094 L 117.960938 185.871094 C 117.1875 186.765625 117.054688 188.042969 117.621094 189.074219 Z M 117.621094 189.074219 " fill-opacity="1" fill-rule="nonzero"/></g></g></g><g clip-path="url(#3425dc2cc3)"><g clip-path="url(#aed74434b9)"><g clip-path="url(#1713a98e39)"><path fill="#fafafa" d="M 112.140625 189.074219 C 112.710938 190.105469 113.863281 190.675781 115.027344 190.5 L 148.707031 185.492188 L 134.898438 226.152344 C 134.464844 227.433594 134.996094 228.839844 136.167969 229.507812 C 136.738281 229.832031 137.375 229.941406 137.984375 229.851562 C 138.636719 229.753906 139.25 229.429688 139.707031 228.902344 L 157.566406 208.15625 L 193.1875 166.78125 C 193.957031 165.890625 194.089844 164.613281 193.523438 163.582031 C 192.953125 162.554688 191.804688 161.980469 190.636719 162.152344 L 156.957031 167.160156 L 170.769531 126.5 C 171.203125 125.222656 170.671875 123.816406 169.496094 123.144531 C 168.929688 122.820312 168.289062 122.714844 167.679688 122.804688 C 167.03125 122.898438 166.414062 123.226562 165.960938 123.753906 L 148.101562 144.496094 L 112.476562 185.871094 C 111.707031 186.765625 111.574219 188.042969 112.140625 189.074219 Z M 112.140625 189.074219 " fill-opacity="1" fill-rule="nonzero"/></g></g></g></svg>